<svg xmlns="http://www.w3.org/2000/svg" width="28" height="19" viewBox="0 0 28 19">
  <path d="M27.612,10.34L18.279,18.652C17.445,19.394 16.001,18.874 16.001,17.811V13.061H8.445C7.706,13.061 7.111,12.532 7.111,11.874V7.125C7.111,6.467 7.706,5.938 8.445,5.938H16.001V1.188C16.001,0.13 17.44,-0.395 18.279,0.347L27.612,8.658C28.129,9.123 28.129,9.875 27.612,10.34ZM10.667,18.404V16.425C10.667,16.099 10.367,15.832 10,15.832H5.334C4.35,15.832 3.556,15.124 3.556,14.249V4.75C3.556,3.875 4.35,3.167 5.334,3.167H10C10.367,3.167 10.667,2.9 10.667,2.574V0.595C10.667,0.268 10.367,0.001 10,0.001H5.334C2.389,0.001 0,2.128 0,4.75V14.249C0,16.871 2.389,18.998 5.334,18.998H10C10.367,18.998 10.667,18.731 10.667,18.404Z"
        fill="black"/>
</svg>